<?xml version="1.0" encoding="utf-8"?>
<!-- Generator: Adobe Illustrator 19.0.0, SVG Export Plug-In . SVG Version: 6.00 Build 0)  -->
<svg version="1.1" xmlns="http://www.w3.org/2000/svg" xmlns:xlink="http://www.w3.org/1999/xlink" x="0px" y="0px"
	 viewBox="0 0 131.6 57.2" style="enable-background:new 0 0 131.6 57.2;" xml:space="preserve">
<style type="text/css">
	.st0{fill:#101010;}
	.st1{fill:#FF4500;}
	.st2{display:none;}
	.st3{display:inline;}
	.st4{fill:#FFFFFF;}
</style>
<g id="Layer_1">
	<g id="XMLID_174_">
		<path id="XMLID_175_" class="st0" d="M11.8,18.2c3.7,0,6.4,1,8,3.6v-2.8h6.2v24h-1.4c-2.4,0-4.1-1.3-4.6-3.4
			c-1.7,2.9-4.5,4.1-8.3,4.1c-5.9,0-10.8-5.1-10.8-12.8C0.9,23.3,5.9,18.2,11.8,18.2z M13.7,38.6c3.7,0,6.2-3.1,6.2-7.7
			s-2.5-7.7-6.2-7.7s-6.2,3.1-6.2,7.7S10,38.6,13.7,38.6z"/>
		<path id="XMLID_178_" class="st0" d="M30.9,53.5V18.9h6.2v2.8c1.6-2.5,4.3-3.6,8-3.6c5.9,0,10.9,5,10.9,12.7
			c0,7.6-5,12.8-10.8,12.8c-3.6,0-6.4-1.1-8.1-3.8v8.8c0,2.9-1.9,4.8-4.8,4.8H30.9z M43.3,23.3c-3.7,0-6.2,3.1-6.2,7.7
			s2.5,7.7,6.2,7.7s6.2-3.1,6.2-7.7S47,23.3,43.3,23.3z"/>
		<path id="XMLID_181_" class="st0" d="M59.9,53.5V18.9h6.2v2.8c1.6-2.5,4.3-3.6,8-3.6c5.9,0,10.9,5,10.9,12.7
			c0,7.6-5,12.8-10.8,12.8c-3.6,0-6.4-1.1-8.1-3.8v8.8c0,2.9-1.9,4.8-4.8,4.8H59.9z M72.3,23.3c-3.7,0-6.2,3.1-6.2,7.7
			s2.5,7.7,6.2,7.7s6.2-3.1,6.2-7.7S76,23.3,72.3,23.3z"/>
		<path id="XMLID_184_" class="st1" d="M98.1,38.1h2.3c3.1,0,4.5,1.9,4.5,4.8h-7.2c-6.7,0-9.3-4.5-9.3-9.6V9.3h6.2v9.6h7.6v4.8h-7.6
			v9.4C94.6,35.7,95.1,38.1,98.1,38.1z"/>
		<path id="XMLID_186_" class="st1" d="M113.7,42.9l-9.3-24h1.9c2.9,0,5.5,1.8,6.5,4.5l4.2,10.9l6-15.4h6.7l-7.6,19.5
			c-1.1,2.7-3.6,4.5-6.5,4.5H113.7z"/>
	</g>
	<g id="XMLID_160_">
		<path id="XMLID_161_" class="st0" d="M11.8,18.2c3.7,0,6.4,1,8,3.6v-2.8h6.2v24h-1.4c-2.4,0-4.1-1.3-4.6-3.4
			c-1.7,2.9-4.5,4.1-8.3,4.1c-5.9,0-10.8-5.1-10.8-12.8C0.9,23.3,5.9,18.2,11.8,18.2z M13.7,38.6c3.7,0,6.2-3.1,6.2-7.7
			s-2.5-7.7-6.2-7.7s-6.2,3.1-6.2,7.7S10,38.6,13.7,38.6z"/>
		<path id="XMLID_164_" class="st0" d="M30.9,53.5V18.9h6.2v2.8c1.6-2.5,4.3-3.6,8-3.6c5.9,0,10.9,5,10.9,12.7
			c0,7.6-5,12.8-10.8,12.8c-3.6,0-6.4-1.1-8.1-3.8v8.8c0,2.9-1.9,4.8-4.8,4.8H30.9z M43.3,23.3c-3.7,0-6.2,3.1-6.2,7.7
			s2.5,7.7,6.2,7.7s6.2-3.1,6.2-7.7S47,23.3,43.3,23.3z"/>
		<path id="XMLID_167_" class="st0" d="M59.9,53.5V18.9h6.2v2.8c1.6-2.5,4.3-3.6,8-3.6c5.9,0,10.9,5,10.9,12.7
			c0,7.6-5,12.8-10.8,12.8c-3.6,0-6.4-1.1-8.1-3.8v8.8c0,2.9-1.9,4.8-4.8,4.8H59.9z M72.3,23.3c-3.7,0-6.2,3.1-6.2,7.7
			s2.5,7.7,6.2,7.7s6.2-3.1,6.2-7.7S76,23.3,72.3,23.3z"/>
		<path id="XMLID_170_" class="st1" d="M98.1,38.1h2.3c3.1,0,4.5,1.9,4.5,4.8h-7.2c-6.7,0-9.3-4.5-9.3-9.6V9.3h6.2v9.6h7.6v4.8h-7.6
			v9.4C94.6,35.7,95.1,38.1,98.1,38.1z"/>
		<path id="XMLID_172_" class="st1" d="M113.7,42.9l-9.3-24h1.9c2.9,0,5.5,1.8,6.5,4.5l4.2,10.9l6-15.4h6.7l-7.6,19.5
			c-1.1,2.7-3.6,4.5-6.5,4.5H113.7z"/>
	</g>
	<g id="XMLID_1_">
		<path id="XMLID_134_" class="st0" d="M11.8,18.2c3.7,0,6.4,1,8,3.6v-2.8h6.2v24h-1.4c-2.4,0-4.1-1.3-4.6-3.4
			c-1.7,2.9-4.5,4.1-8.3,4.1c-5.9,0-10.8-5.1-10.8-12.8C0.9,23.3,5.9,18.2,11.8,18.2z M13.7,38.6c3.7,0,6.2-3.1,6.2-7.7
			s-2.5-7.7-6.2-7.7s-6.2,3.1-6.2,7.7S10,38.6,13.7,38.6z"/>
		<path id="XMLID_137_" class="st0" d="M30.9,53.5V18.9h6.2v2.8c1.6-2.5,4.3-3.6,8-3.6c5.9,0,10.9,5,10.9,12.7
			c0,7.6-5,12.8-10.8,12.8c-3.6,0-6.4-1.1-8.1-3.8v8.8c0,2.9-1.9,4.8-4.8,4.8H30.9z M43.3,23.3c-3.7,0-6.2,3.1-6.2,7.7
			s2.5,7.7,6.2,7.7s6.2-3.1,6.2-7.7S47,23.3,43.3,23.3z"/>
		<path id="XMLID_140_" class="st0" d="M59.9,53.5V18.9h6.2v2.8c1.6-2.5,4.3-3.6,8-3.6c5.9,0,10.9,5,10.9,12.7
			c0,7.6-5,12.8-10.8,12.8c-3.6,0-6.4-1.1-8.1-3.8v8.8c0,2.9-1.9,4.8-4.8,4.8H59.9z M72.3,23.3c-3.7,0-6.2,3.1-6.2,7.7
			s2.5,7.7,6.2,7.7s6.2-3.1,6.2-7.7S76,23.3,72.3,23.3z"/>
		<path id="XMLID_143_" class="st1" d="M98.1,38.1h2.3c3.1,0,4.5,1.9,4.5,4.8h-7.2c-6.7,0-9.3-4.5-9.3-9.6V9.3h6.2v9.6h7.6v4.8h-7.6
			v9.4C94.6,35.7,95.1,38.1,98.1,38.1z"/>
		<path id="XMLID_145_" class="st1" d="M113.7,42.9l-9.3-24h1.9c2.9,0,5.5,1.8,6.5,4.5l4.2,10.9l6-15.4h6.7l-7.6,19.5
			c-1.1,2.7-3.6,4.5-6.5,4.5H113.7z"/>
	</g>
</g>
<g id="Layer_2" class="st2">
	<g class="st3">
		<path id="XMLID_189_" class="st4" d="M167.5,18.2c3.7,0,6.4,1,8,3.6v-2.8h6.2v24h-1.4c-2.4,0-4.1-1.3-4.6-3.4
			c-1.7,2.9-4.5,4.1-8.3,4.1c-5.9,0-10.8-5.1-10.8-12.8C156.6,23.3,161.6,18.2,167.5,18.2z M169.3,38.6c3.7,0,6.2-3.1,6.2-7.7
			c0-4.6-2.5-7.7-6.2-7.7s-6.2,3.1-6.2,7.7C163.1,35.5,165.6,38.6,169.3,38.6z"/>
		<path id="XMLID_192_" class="st4" d="M186.6,53.5V18.9h6.2v2.8c1.6-2.5,4.3-3.6,8-3.6c5.9,0,10.9,5,10.9,12.7
			c0,7.6-5,12.8-10.8,12.8c-3.6,0-6.4-1.1-8.1-3.8v8.8c0,2.9-1.9,4.8-4.8,4.8H186.6z M199,23.3c-3.7,0-6.2,3.1-6.2,7.7
			c0,4.6,2.5,7.7,6.2,7.7s6.2-3.1,6.2-7.7C205.2,26.4,202.7,23.3,199,23.3z"/>
		<path id="XMLID_195_" class="st4" d="M215.6,53.5V18.9h6.2v2.8c1.6-2.5,4.3-3.6,8-3.6c5.9,0,10.9,5,10.9,12.7
			c0,7.6-5,12.8-10.8,12.8c-3.6,0-6.4-1.1-8.1-3.8v8.8c0,2.9-1.9,4.8-4.8,4.8H215.6z M228,23.3c-3.7,0-6.2,3.1-6.2,7.7
			c0,4.6,2.5,7.7,6.2,7.7c3.7,0,6.2-3.1,6.2-7.7C234.2,26.4,231.7,23.3,228,23.3z"/>
		<path id="XMLID_198_" class="st1" d="M253.8,38.1h2.3c3.1,0,4.5,1.9,4.5,4.8h-7.2c-6.7,0-9.3-4.5-9.3-9.6v-24h6.2v9.6h7.6v4.8
			h-7.6v9.4C250.3,35.7,250.7,38.1,253.8,38.1z"/>
		<path id="XMLID_200_" class="st1" d="M269.4,42.9l-9.3-24h1.9c2.9,0,5.5,1.8,6.5,4.5l4.2,10.9l6-15.4h6.7l-7.6,19.5
			c-1.1,2.7-3.6,4.5-6.5,4.5H269.4z"/>
	</g>
	<g id="XMLID_56_" class="st3">
		<path id="XMLID_147_" class="st4" d="M167.5,18.2c3.7,0,6.4,1,8,3.6v-2.8h6.2v24h-1.4c-2.4,0-4.1-1.3-4.6-3.4
			c-1.7,2.9-4.5,4.1-8.3,4.1c-5.9,0-10.8-5.1-10.8-12.8C156.6,23.3,161.6,18.2,167.5,18.2z M169.3,38.6c3.7,0,6.2-3.1,6.2-7.7
			c0-4.6-2.5-7.7-6.2-7.7s-6.2,3.1-6.2,7.7C163.1,35.5,165.6,38.6,169.3,38.6z"/>
		<path id="XMLID_150_" class="st4" d="M186.6,53.5V18.9h6.2v2.8c1.6-2.5,4.3-3.6,8-3.6c5.9,0,10.9,5,10.9,12.7
			c0,7.6-5,12.8-10.8,12.8c-3.6,0-6.4-1.1-8.1-3.8v8.8c0,2.9-1.9,4.8-4.8,4.8H186.6z M199,23.3c-3.7,0-6.2,3.1-6.2,7.7
			c0,4.6,2.5,7.7,6.2,7.7s6.2-3.1,6.2-7.7C205.2,26.4,202.7,23.3,199,23.3z"/>
		<path id="XMLID_153_" class="st4" d="M215.6,53.5V18.9h6.2v2.8c1.6-2.5,4.3-3.6,8-3.6c5.9,0,10.9,5,10.9,12.7
			c0,7.6-5,12.8-10.8,12.8c-3.6,0-6.4-1.1-8.1-3.8v8.8c0,2.9-1.9,4.8-4.8,4.8H215.6z M228,23.3c-3.7,0-6.2,3.1-6.2,7.7
			c0,4.6,2.5,7.7,6.2,7.7c3.7,0,6.2-3.1,6.2-7.7C234.2,26.4,231.7,23.3,228,23.3z"/>
		<path id="XMLID_156_" class="st1" d="M253.8,38.1h2.3c3.1,0,4.5,1.9,4.5,4.8h-7.2c-6.7,0-9.3-4.5-9.3-9.6v-24h6.2v9.6h7.6v4.8
			h-7.6v9.4C250.3,35.7,250.7,38.1,253.8,38.1z"/>
		<path id="XMLID_158_" class="st1" d="M269.4,42.9l-9.3-24h1.9c2.9,0,5.5,1.8,6.5,4.5l4.2,10.9l6-15.4h6.7l-7.6,19.5
			c-1.1,2.7-3.6,4.5-6.5,4.5H269.4z"/>
	</g>
</g>
</svg>
